<svg width="120" height="120" viewBox="0 0 120 120" fill="none" xmlns="http://www.w3.org/2000/svg">
<path d="M60 120C93.1371 120 120 93.1371 120 60C120 26.8629 93.1371 0 60 0C26.8629 0 0 26.8629 0 60C0 76.6752 6.8025 91.7617 17.7839 102.636L30.5903 86.2677L11.0934 73.6347H15.4183L6.0515 65.4778V59.843L2.14286 51.2544L17.3148 61.7743L19.7432 61.2971L19.9283 56.5484L16.3666 54.4353V42.075H21.686L36.1178 19.2857L42.3855 31.9187V38.9622L46.5717 38.7805L47.2193 49.6639L51.7755 49.573L64.0796 30.0783L67.4331 39.8711L89.7748 29.3512L79.3671 51.4589L89.3816 54.6171L69.6765 66.9547V71.4308L80.778 71.9306L80.6392 76.0431L87.8089 75.9523L100.737 81.9052L77.7482 96.4013L77.8176 101.627L65.236 101.786L63.0535 98.3558L58.2282 98.6053L57.7657 100.991L68.6589 115.737L59.8703 112.011L54.1345 112.079L45.6929 102.99L45.7622 107.239L32.6486 88.2671L18.5708 103.401C29.3409 113.685 43.9329 120 60 120Z" fill="#417940"/>
<path d="M89.7285 29.3966L88.919 30.1919H88.9422L89.7285 29.3966Z" fill="#417940"/>
</svg>
