<svg width="228" height="40" viewBox="0 0 228 40" fill="none" xmlns="http://www.w3.org/2000/svg">
<path d="M46.445 7.535L36.54 29.13L26.635 7.535H25.06H23.45L13.545 29.13L3.64 7.535H0.49L11.69 32H15.4L25.06 11L34.685 32H38.395L49.63 7.535H46.445ZM75.9366 10.405V7.535H52.9066V32H75.9366V29.13H55.7766V21.22H75.9366V18.35H55.7766V10.405H75.9366ZM107.122 17.37C107.402 16.845 107.542 16.285 107.577 15.69V11.595C107.472 9.39 105.722 7.64 103.517 7.535H80.5921V32H105.337C107.507 31.895 109.257 30.145 109.362 27.94V20.905C109.292 19.365 108.417 18.035 107.122 17.37ZM103.377 10.405C103.727 10.44 104.042 10.58 104.287 10.825C104.532 11.07 104.672 11.385 104.707 11.735V15.55C104.672 15.9 104.532 16.215 104.287 16.46C104.042 16.705 103.727 16.845 103.377 16.845H83.4621V10.405H103.377ZM106.492 27.835C106.492 28.15 106.352 28.5 106.107 28.745C105.862 28.99 105.512 29.13 105.197 29.13H83.4621V19.785L105.162 19.75C105.512 19.75 105.862 19.89 106.107 20.135C106.352 20.38 106.492 20.695 106.492 21.045V27.835Z" fill="#0E111D"/>
<path d="M146.924 0.611999L143.528 8.016L140.132 0.611999H139.592H139.04L135.644 8.016L132.248 0.611999H131.168L135.008 9H136.28L139.592 1.8L142.892 9H144.164L148.016 0.611999H146.924ZM157.035 1.596V0.611999H149.139V9H157.035V8.016H150.123V5.304H157.035V4.32H150.123V1.596H157.035ZM167.728 3.984C167.824 3.804 167.872 3.612 167.884 3.408V2.004C167.848 1.248 167.248 0.648 166.492 0.611999H158.632V9H167.116C167.86 8.964 168.46 8.364 168.496 7.608V5.196C168.472 4.668 168.172 4.212 167.728 3.984ZM166.444 1.596C166.564 1.608 166.672 1.656 166.756 1.74C166.84 1.824 166.888 1.932 166.9 2.052V3.36C166.888 3.48 166.84 3.588 166.756 3.672C166.672 3.756 166.564 3.804 166.444 3.804H159.616V1.596H166.444ZM167.512 7.572C167.512 7.68 167.464 7.8 167.38 7.884C167.296 7.968 167.176 8.016 167.068 8.016H159.616V4.812L167.056 4.8C167.176 4.8 167.296 4.848 167.38 4.932C167.464 5.016 167.512 5.124 167.512 5.244V7.572Z" fill="#0E111D"/>
<path d="M132.164 23.012H140.648C141.392 22.976 142.004 22.376 142.04 21.62V16.004C142.004 15.248 141.392 14.648 140.648 14.612H131.552V15.596H132.164V23.012ZM141.056 21.572C141.044 21.692 140.996 21.8 140.912 21.884C140.828 21.968 140.72 22.016 140.6 22.016H133.148V15.596H140.6C140.72 15.608 140.828 15.656 140.912 15.74C140.996 15.824 141.044 15.932 141.056 16.052V21.572ZM151.739 15.596V14.612H143.843V23H151.739V22.016H144.827V19.304H151.739V18.32H144.827V15.596H151.739ZM161.603 19.304C161.711 19.304 161.831 19.352 161.915 19.436C161.999 19.52 162.047 19.64 162.047 19.748V20.912C162.035 21.152 162.023 21.404 162.011 21.644C162.011 21.764 161.963 21.872 161.879 21.956C161.795 22.04 161.687 22.088 161.567 22.088C160.379 22.148 159.287 22.172 158.099 22.172C156.911 22.172 155.819 22.148 154.631 22.088C154.511 22.088 154.403 22.04 154.319 21.956C154.235 21.872 154.187 21.764 154.175 21.644C154.163 21.404 154.163 21.152 154.151 20.912H153.167C153.167 21.176 153.179 21.428 153.191 21.692C153.227 22.448 153.839 23.048 154.583 23.084C155.795 23.132 156.887 23.168 158.099 23.168C159.311 23.168 160.403 23.132 161.615 23.084C162.359 23.048 162.971 22.448 163.007 21.692C163.019 21.428 163.031 21.176 163.031 20.912V19.7C162.995 18.956 162.395 18.344 161.639 18.32H154.607C154.487 18.308 154.367 18.26 154.283 18.176C154.199 18.092 154.151 17.984 154.151 17.864V16.7C154.163 16.46 154.175 16.22 154.187 15.98C154.187 15.86 154.235 15.74 154.319 15.656C154.403 15.572 154.511 15.524 154.631 15.524C155.819 15.464 156.911 15.44 158.099 15.44C159.287 15.44 160.379 15.464 161.567 15.524C161.687 15.524 161.795 15.572 161.879 15.656C161.963 15.74 162.011 15.86 162.023 15.98C162.035 16.22 162.035 16.46 162.047 16.7H163.031C163.031 16.448 163.019 16.184 163.007 15.92C162.971 15.176 162.359 14.576 161.615 14.54C160.403 14.48 159.311 14.456 158.099 14.456C156.887 14.456 155.795 14.48 154.583 14.54C153.839 14.576 153.227 15.176 153.191 15.92C153.179 16.184 153.167 16.448 153.167 16.7V17.912C153.203 18.668 153.803 19.268 154.559 19.304H161.603ZM165.756 23V14.612H164.772V23H165.756ZM170.919 19.328L176.295 19.316C176.415 19.328 176.523 19.376 176.607 19.46C176.691 19.544 176.739 19.652 176.751 19.772L176.739 20.912C176.739 21.152 176.727 21.392 176.715 21.644C176.703 21.752 176.655 21.872 176.571 21.956C176.487 22.04 176.379 22.088 176.259 22.088C175.071 22.148 173.871 22.172 172.683 22.172C171.495 22.172 170.283 22.148 169.095 22.088C168.987 22.088 168.867 22.04 168.783 21.956C168.699 21.872 168.651 21.752 168.651 21.644C168.555 19.76 168.555 17.852 168.651 15.98C168.651 15.86 168.699 15.752 168.783 15.668C168.867 15.584 168.987 15.536 169.095 15.524C170.283 15.476 171.495 15.44 172.683 15.44C173.871 15.44 175.071 15.476 176.259 15.524C176.379 15.536 176.487 15.584 176.571 15.668C176.655 15.752 176.703 15.86 176.715 15.98C176.727 16.22 176.739 16.46 176.739 16.712H177.735C177.723 16.448 177.711 16.184 177.699 15.932C177.663 15.176 177.063 14.576 176.307 14.54C175.095 14.48 173.883 14.456 172.683 14.456C171.471 14.456 170.259 14.48 169.059 14.54C168.303 14.576 167.703 15.176 167.667 15.932C167.559 17.852 167.559 19.772 167.667 21.692C167.703 22.436 168.303 23.048 169.059 23.072C170.259 23.132 171.471 23.156 172.683 23.156C173.883 23.156 175.095 23.132 176.307 23.072C177.063 23.048 177.663 22.436 177.699 21.692C177.711 21.428 177.723 21.164 177.735 20.912V19.724C177.699 18.968 177.087 18.368 176.343 18.332H170.919V19.328ZM188.348 14.612V22.016H188.024L181.208 14.612H179.468V23H180.452V15.596H180.728L187.592 23H189.332V14.612H188.348Z" fill="#0E111D"/>
<path d="M141.812 31.004C141.776 30.248 141.176 29.648 140.432 29.612H131.948V38H132.932V34.808H140.42C141.176 34.772 141.776 34.172 141.812 33.416V31.004ZM140.696 33.68C140.612 33.764 140.492 33.812 140.372 33.824L132.932 33.812V30.596H140.384C140.492 30.608 140.612 30.656 140.696 30.74C140.78 30.824 140.828 30.932 140.828 31.052V33.368C140.828 33.488 140.78 33.596 140.696 33.68ZM143.339 29.612V38H144.323V34.808H146.759L151.451 38H153.203L148.511 34.808H151.199C151.943 34.772 152.555 34.172 152.591 33.416V31.004C152.555 30.248 151.955 29.648 151.199 29.612H143.339ZM151.151 30.596C151.271 30.608 151.379 30.656 151.463 30.74C151.547 30.824 151.595 30.932 151.595 31.052L151.607 33.368C151.595 33.488 151.547 33.596 151.463 33.68C151.379 33.764 151.271 33.812 151.151 33.824L144.323 33.812V30.596H151.151ZM159.359 30.44C160.547 30.44 161.747 30.476 162.935 30.524C163.055 30.536 163.163 30.584 163.247 30.668C163.331 30.752 163.379 30.86 163.391 30.98C163.487 32.852 163.487 34.76 163.391 36.644C163.379 36.752 163.331 36.872 163.247 36.956C163.163 37.04 163.055 37.088 162.935 37.088C161.747 37.148 160.547 37.172 159.359 37.172C158.171 37.172 156.959 37.148 155.771 37.088C155.663 37.088 155.543 37.04 155.459 36.956C155.375 36.872 155.327 36.752 155.327 36.644C155.231 34.76 155.231 32.852 155.327 30.98C155.327 30.86 155.375 30.752 155.459 30.668C155.543 30.584 155.663 30.536 155.771 30.524C156.959 30.476 158.171 30.44 159.359 30.44ZM155.735 29.54C154.979 29.576 154.379 30.176 154.343 30.932C154.235 32.852 154.235 34.772 154.343 36.692C154.379 37.436 154.979 38.048 155.735 38.072C156.935 38.132 158.147 38.156 159.359 38.156C160.559 38.156 161.771 38.132 162.983 38.072C163.739 38.048 164.339 37.436 164.375 36.692C164.471 34.772 164.471 32.852 164.375 30.932C164.339 30.176 163.739 29.576 162.983 29.54C161.771 29.48 160.559 29.456 159.359 29.456C158.147 29.456 156.935 29.48 155.735 29.54ZM175.632 29.612L171.828 36.812L168.024 29.612H166.284V38H167.268V30.596H167.436L171.348 38H172.32L176.232 30.596H176.4V38H177.384V29.612H175.632ZM184.308 30.44C185.496 30.44 186.696 30.476 187.884 30.524C188.004 30.536 188.112 30.584 188.196 30.668C188.28 30.752 188.328 30.86 188.34 30.98C188.436 32.852 188.436 34.76 188.34 36.644C188.328 36.752 188.28 36.872 188.196 36.956C188.112 37.04 188.004 37.088 187.884 37.088C186.696 37.148 185.496 37.172 184.308 37.172C183.12 37.172 181.908 37.148 180.72 37.088C180.612 37.088 180.492 37.04 180.408 36.956C180.324 36.872 180.276 36.752 180.276 36.644C180.18 34.76 180.18 32.852 180.276 30.98C180.276 30.86 180.324 30.752 180.408 30.668C180.492 30.584 180.612 30.536 180.72 30.524C181.908 30.476 183.12 30.44 184.308 30.44ZM180.684 29.54C179.928 29.576 179.328 30.176 179.292 30.932C179.184 32.852 179.184 34.772 179.292 36.692C179.328 37.436 179.928 38.048 180.684 38.072C181.884 38.132 183.096 38.156 184.308 38.156C185.508 38.156 186.72 38.132 187.932 38.072C188.688 38.048 189.288 37.436 189.324 36.692C189.42 34.772 189.42 32.852 189.324 30.932C189.288 30.176 188.688 29.576 187.932 29.54C186.72 29.48 185.508 29.456 184.308 29.456C183.096 29.456 181.884 29.48 180.684 29.54ZM198.361 29.612H190.465V30.596H193.909V38H194.905V30.596H198.361V29.612ZM200.491 38V29.612H199.507V38H200.491ZM207.417 30.44C208.605 30.44 209.805 30.476 210.993 30.524C211.113 30.536 211.221 30.584 211.305 30.668C211.389 30.752 211.437 30.86 211.449 30.98C211.545 32.852 211.545 34.76 211.449 36.644C211.437 36.752 211.389 36.872 211.305 36.956C211.221 37.04 211.113 37.088 210.993 37.088C209.805 37.148 208.605 37.172 207.417 37.172C206.229 37.172 205.017 37.148 203.829 37.088C203.721 37.088 203.601 37.04 203.517 36.956C203.433 36.872 203.385 36.752 203.385 36.644C203.289 34.76 203.289 32.852 203.385 30.98C203.385 30.86 203.433 30.752 203.517 30.668C203.601 30.584 203.721 30.536 203.829 30.524C205.017 30.476 206.229 30.44 207.417 30.44ZM203.793 29.54C203.037 29.576 202.437 30.176 202.401 30.932C202.293 32.852 202.293 34.772 202.401 36.692C202.437 37.436 203.037 38.048 203.793 38.072C204.993 38.132 206.205 38.156 207.417 38.156C208.617 38.156 209.829 38.132 211.041 38.072C211.797 38.048 212.397 37.436 212.433 36.692C212.529 34.772 212.529 32.852 212.433 30.932C212.397 30.176 211.797 29.576 211.041 29.54C209.829 29.48 208.617 29.456 207.417 29.456C206.205 29.456 204.993 29.48 203.793 29.54ZM223.223 29.612V37.016H222.899L216.083 29.612H214.343V38H215.327V30.596H215.603L222.467 38H224.207V29.612H223.223Z" fill="#0E111D"/>
</svg>
