<svg width="47" height="20" viewBox="0 0 47 20" xmlns="http://www.w3.org/2000/svg">
<path d="M15.0785 1.70935L12.4585 18.5381L12.6902 19.8915H9.28593L9.51763 18.5381L7.8066 7.94221L6.14903 18.5381L6.38073 19.8915H3.01213L3.24384 18.5381L0.570345 1.74497L0 0.0175781H3.08343L2.90519 0.854562L4.68752 12.9997L6.46985 0.854562L6.25597 0.0175781H9.37504L9.16116 0.854562L10.9613 12.9997L12.7436 0.854562L12.5298 0.0175781H15.6488L15.0785 1.70935Z"/>
<path d="M25.3264 19.8917H17.8584L18.1792 18.663V1.21095L17.8584 0H25.3264L25.7719 2.74246L24.4887 2.45753H20.924L20.6388 2.74246V8.38764L20.924 8.67257H21.9221L23.1519 8.35203V11.4685L21.9221 11.1479H20.924L20.6388 11.4685V17.0958L20.924 17.3808H24.4887L25.7719 17.0958L25.3264 19.8917Z"/>
<path d="M28.4281 1.21095L28.1073 0H34.6306L35.8961 1.22876V8.69038L34.6128 9.91915L35.8961 11.1835V18.663L34.6306 19.8917H28.1251L28.4459 18.663V1.21095H28.4281ZM30.9234 2.74246V8.38764L31.2086 8.67257H33.1156L33.4008 8.38764V2.74246L33.1156 2.45753H31.2086L30.9234 2.74246ZM33.4186 11.4685L33.1335 11.1835H31.2264L30.9412 11.4685V17.0958L31.2264 17.3808H33.1156L33.4008 17.0958V11.4685H33.4186Z"/>
<path d="M47 14.9232L46.6792 16.1342V19.9095H39.2112V9.93696L40.441 8.70819H43.8987L44.1839 8.42326V2.79588L43.8987 2.51095H41.956L41.6708 2.79588V3.75752L42.0095 4.96848H38.8904L39.2112 3.75752V1.26438L40.441 0H45.4137L46.6792 1.26438V9.95476L45.4137 11.2191H41.956L41.6708 11.5041V17.0958L41.956 17.3808H43.8987L44.1839 17.0958V16.1342L43.8631 14.9232H47Z"/>
</svg>
