<svg width="11" height="11" viewBox="0 0 11 11" xmlns="http://www.w3.org/2000/svg">
<path d="M6.54326 7.36637L7.29127 6.61836C7.69095 6.21867 8.35851 6.17651 8.80363 6.52267L10.4315 7.96362C10.9101 8.33576 11.0183 8.88896 10.5896 9.31769L9.4664 10.4409C8.1727 11.7345 4.97305 10.2291 2.85858 8.11448C0.743755 5.99957 -0.823677 2.73822 0.469931 1.44461L1.59312 0.321289C2.02212 -0.107699 2.61015 0.0734779 2.98181 0.551305L4.38818 2.10727C4.73486 2.55304 4.69217 3.22 4.29249 3.61955L3.54461 4.36756C3.4301 4.48193 3.39867 4.71814 3.47858 4.8512C3.47858 4.8512 3.66871 5.18171 3.74647 5.29697C3.97131 5.63024 4.25245 5.97679 4.59331 6.31765C4.93404 6.65838 5.28095 6.93991 5.61499 7.16513C5.7305 7.24303 5.83554 7.30804 5.9277 7.36069C5.98047 7.39086 6.01544 7.40929 6.0571 7.43088C6.19332 7.51028 6.43065 7.47898 6.54326 7.36637Z"/>
</svg>
